<svg width="88" height="65" viewBox="0 0 88 65" fill="none" xmlns="http://www.w3.org/2000/svg">
<path d="M84.6879 17.1028C84.3342 15.8581 83.2055 15 81.9224 15H78.5C78.5 10.2025 74.6311 6.3 69.875 6.3H52.1365C51.3643 6.3 50.6372 5.99405 50.087 5.43899L47.7286 3.06012C46.0919 1.40915 43.9215 0.5 41.6135 0.5H38.6965C37.3208 0.5 36.1389 1.48136 35.875 2.84204L33.5137 15H28.387L30.5349 3.95796C30.7005 3.10681 30.4789 2.22608 29.9341 1.55792C29.3867 0.88802 28.5725 0.50029 27.7131 0.50029H9.5C4.74389 0.50029 0.875 4.40282 0.875 9.20029V55.6C0.875 60.3975 4.74389 64.3 9.5 64.3H71.481C73.5866 64.3 75.608 63.5283 77.2899 62.0218C77.9302 61.3861 92.9058 46.11 84.6879 17.1028ZM22.5272 15H13.964C13.0627 15 12.212 15.4277 11.6675 16.1539C11.1255 16.8804 10.9516 17.822 11.1985 18.6972C17.0889 39.4745 9.90135 52.0713 6.72045 56.3462C6.65864 56.1084 6.625 55.8575 6.625 55.6V9.2C6.625 7.60123 7.91358 6.3 9.5 6.3H24.2203L22.5272 15ZM41.0632 6.3H41.6135C42.3857 6.3 43.1128 6.60595 43.6631 7.16101L46.0214 9.53988C47.6581 11.1908 49.8285 12.1 52.1365 12.1H69.875C71.4614 12.1 72.75 13.4012 72.75 15H39.3736L41.0632 6.3ZM31.2962 40.2703L29.7886 38.7493C29.5129 38.4711 29.4467 38.0335 29.6365 37.6902C30.4467 36.2245 31.4242 34.8737 32.473 33.582C31.4245 32.2904 30.4467 30.9396 29.6365 29.4739C29.4467 29.1305 29.5129 28.6926 29.7886 28.4145L31.2962 26.8938C31.5719 26.6157 32.0061 26.549 32.3462 26.7404C33.7992 27.5573 35.1387 28.5436 36.4189 29.6015C37.6994 28.5439 39.0386 27.5576 40.4916 26.7404C40.8317 26.549 41.2659 26.6157 41.5416 26.8938L43.0492 28.4145C43.325 28.6926 43.3911 29.1305 43.2013 29.4739C42.3912 30.9396 41.4134 32.2904 40.3649 33.582C41.4134 34.8737 42.3912 36.2245 43.2013 37.6902C43.3911 38.0335 43.325 38.4711 43.0492 38.7493L41.5416 40.2703C41.2659 40.5481 40.8317 40.6148 40.4914 40.4237C39.0383 39.6065 37.6992 38.6202 36.4186 37.5626C35.1381 38.6202 33.7989 39.6065 32.3459 40.4237C32.0055 40.6151 31.5719 40.5484 31.2962 40.2703ZM63.7452 53.0874C54.5352 51.9356 47.5986 51.417 38.0927 53.0637C36.592 53.4882 35.492 51.5635 36.6912 50.5308C42.5038 45.5321 51.1516 44.0157 58.327 46.71C60.2544 47.3248 68.8466 51.6473 63.7452 53.0874ZM71.853 37.6902C72.0427 38.0335 71.9766 38.4711 71.7009 38.7493L70.1933 40.2703C69.9175 40.5481 69.4834 40.6148 69.143 40.4237C67.69 39.6065 66.3508 38.6202 65.0703 37.5626C63.7898 38.6202 62.4506 39.6065 60.9976 40.4237C60.6572 40.6151 60.223 40.5484 59.9473 40.2703L58.4397 38.7493C58.164 38.4711 58.0979 38.0335 58.2876 37.6902C59.0978 36.2245 60.0753 34.8737 61.1241 33.582C60.0756 32.2904 59.0978 30.9396 58.2876 29.4739C58.0979 29.1305 58.164 28.6926 58.4397 28.4145L59.9473 26.8938C60.223 26.6157 60.6572 26.549 60.9973 26.7404C62.4503 27.5573 63.7898 28.5436 65.07 29.6015C66.3505 28.5439 67.6897 27.5576 69.1427 26.7404C69.4828 26.549 69.917 26.6157 70.1927 26.8938L71.7003 28.4145C71.9761 28.6926 72.0422 29.1305 71.8524 29.4739C71.0423 30.9396 70.0645 32.2904 69.016 33.582C70.0645 34.8737 71.0428 36.2245 71.853 37.6902Z" fill="#0075FF"/>
</svg>
