<svg width="291" height="222" viewBox="0 0 291 222" fill="none" xmlns="http://www.w3.org/2000/svg">
<path opacity="0.1" fill-rule="evenodd" clip-rule="evenodd" d="M8.5048 146.593C30.8121 204.68 90.9102 235.838 142.453 216.044C191.576 197.18 284.831 53.2856 288.775 47.1644C292.26 41.7637 289.484 34.5264 283.278 32.8524C282.824 32.6957 235.441 19.9398 184.316 10.5457C171.46 8.20959 158.381 6.0703 145.653 4.39552C104.79 -1.03595 77.2796 -0.741043 61.5377 5.30432C9.99201 25.131 -13.8129 88.4789 8.5048 146.593ZM158.319 79.4816C158.795 79.2988 159.329 79.5365 159.512 80.0126L165.293 95.0673C165.476 95.5434 165.239 96.0775 164.762 96.2603L122.885 112.343C122.408 112.526 122.171 113.06 122.354 113.536L138.392 155.3C138.575 155.776 138.337 156.31 137.861 156.493L122.806 162.274C122.33 162.457 121.796 162.219 121.613 161.743L105.575 119.979C105.392 119.503 104.858 119.266 104.382 119.448L62.6181 135.487C62.142 135.67 61.6079 135.432 61.425 134.956L55.6435 119.901C55.4607 119.425 55.6984 118.891 56.1745 118.708L97.9383 102.67C98.4143 102.487 98.6521 101.953 98.4692 101.477L82.3868 59.5987C82.204 59.1227 82.4417 58.5885 82.9177 58.4057L97.9725 52.6242C98.4486 52.4414 98.9827 52.6791 99.1655 53.1552L115.248 95.0331C115.431 95.5091 115.965 95.7469 116.441 95.564L158.319 79.4816Z" fill="white"/>
</svg>
