<svg width="193" height="145" viewBox="0 0 193 145" fill="none" xmlns="http://www.w3.org/2000/svg">
<path opacity="0.1" fill-rule="evenodd" clip-rule="evenodd" d="M0.0285532 71.8728C-0.115484 111.576 28.4382 143.988 63.6683 144.115C97.2445 144.237 185.943 80.178 189.703 77.4476C193.023 75.0399 193.043 70.0939 189.738 67.6651C189.504 67.4669 164.264 48.9378 136.023 31.5443C128.915 27.1862 121.629 22.8934 114.445 18.9582C91.3923 6.29141 74.96 0.114236 64.2002 0.075201C28.9607 -0.0338622 0.172657 32.1508 0.0285532 71.8728ZM104.64 66.5468C104.966 66.548 105.229 66.8127 105.228 67.1381L105.19 77.4283C105.189 77.7537 104.924 78.0165 104.599 78.0153L75.9747 77.9115C75.6493 77.9103 75.3846 78.1731 75.3834 78.4985L75.2798 107.045C75.2786 107.37 75.0139 107.633 74.6885 107.632L64.3983 107.594C64.073 107.593 63.8101 107.328 63.8113 107.003L63.9149 78.4569C63.916 78.1315 63.6532 77.8668 63.3278 77.8656L34.7817 77.762C34.4563 77.7608 34.1934 77.4961 34.1946 77.1707L34.2319 66.8806C34.2331 66.5552 34.4979 66.2923 34.8233 66.2935L63.3694 66.3971C63.6948 66.3983 63.9596 66.1354 63.9607 65.81L64.0646 37.1858C64.0658 36.8604 64.3305 36.5976 64.6559 36.5988L74.9461 36.6361C75.2715 36.6373 75.5343 36.9021 75.5331 37.2274L75.4293 65.8516C75.4281 66.177 75.6909 66.4418 76.0163 66.443L104.64 66.5468Z" fill="white"/>
</svg>
