<svg width="40" height="40" viewBox="0 0 40 40" fill="none" xmlns="http://www.w3.org/2000/svg">
<path d="M11.3943 25.94C11.514 25.7364 11.5451 25.5063 11.4891 25.2793L11.0755 23.5722L12.8354 20.5282C12.9349 20.5484 13.0344 20.5593 13.1386 20.5593C13.2738 20.5593 13.4091 20.5438 13.5443 20.5033C13.947 20.3961 14.2813 20.1364 14.4911 19.7789L22.6345 5.67359C23.0045 5.03306 23.104 4.28061 22.9097 3.56391C22.7184 2.84409 22.2567 2.24245 21.6162 1.87243C20.9756 1.50242 20.2232 1.40292 19.5065 1.59726C18.7867 1.78848 18.185 2.25021 17.815 2.89074L9.6669 17.0008C9.32487 17.5931 9.42437 18.3145 9.85035 18.8042L1.57646 33.1351C1.43343 33.3854 1.51738 33.7088 1.76768 33.8518C2.0071 33.9871 2.388 34.0633 2.85751 34.0633C4.50544 34.0633 7.21992 33.1678 8.48554 30.9711L11.3943 25.94ZM18.7181 3.42075C18.9482 3.02275 19.3229 2.73667 19.7722 2.617C19.923 2.57658 20.0753 2.55792 20.2292 2.55792C20.5277 2.55792 20.8216 2.63721 21.089 2.78801C21.487 3.0181 21.7731 3.39276 21.8927 3.84205C22.0124 4.29135 21.9518 4.75776 21.7217 5.15886L14.6311 17.4346L11.6259 15.6996L18.7181 3.42075ZM10.5748 17.526L11.1034 16.6103L14.1085 18.3453L13.58 19.261C13.5116 19.3761 13.4012 19.46 13.269 19.4958C13.1384 19.5316 13.0016 19.5113 12.8835 19.4445L10.7583 18.2194C10.5189 18.0795 10.4349 17.7686 10.5748 17.526ZM7.58208 30.4485C6.79075 31.8212 5.3698 32.454 4.59247 32.709C3.87577 32.9437 3.27102 33.0199 2.85281 33.0199L10.7148 19.4041L11.8808 20.0773L10.1333 23.1027C10.0136 23.3064 9.98254 23.5364 10.0385 23.7634L10.4521 25.4705L7.58208 30.4485Z" fill="#252525"/>
<path d="M32.9822 33.0199H26.3158C26.0764 33.0199 25.8696 33.1785 25.8106 33.4101L25.1545 35.8572L22.6795 26.6241C22.6204 26.394 22.409 26.2339 22.1742 26.2339C21.9395 26.2339 21.728 26.3925 21.669 26.6241L19.1691 35.9491L17.6207 30.1734C17.5647 29.9666 17.3859 29.8112 17.1714 29.7879C16.9568 29.7645 16.7501 29.8749 16.6506 30.0661L15.1177 33.02H8.77164C8.48092 33.02 8.24617 33.2548 8.24617 33.5455C8.24617 33.8362 8.48093 34.071 8.77164 34.071H15.4333C15.6276 34.071 15.8079 33.9637 15.8997 33.788L16.9584 31.7498L18.6623 38.1098C18.7214 38.3399 18.9328 38.5 19.1676 38.5C19.4023 38.5 19.6137 38.3414 19.6728 38.1098L22.1727 28.7848L24.6477 38.0178C24.7068 38.2479 24.9182 38.4081 25.153 38.4081C25.3877 38.4081 25.5992 38.2495 25.6582 38.0178L26.717 34.069H32.9774C33.2681 34.069 33.5029 33.8342 33.5029 33.5435C33.5029 33.2544 33.2683 33.0199 32.9822 33.0199Z" fill="#252525"/>
<path d="M30.3392 7.97419C25.8414 7.97419 22.1851 11.6323 22.1851 16.1283C22.1851 20.626 25.8432 24.2824 30.3392 24.2824C34.8369 24.2824 38.4932 20.6243 38.4932 16.1283C38.4932 11.6306 34.832 7.97419 30.3392 7.97419ZM30.3392 23.2364C26.4183 23.2364 23.2314 20.0478 23.2314 16.1287C23.2314 12.2078 26.42 9.02091 30.3392 9.02091C34.26 9.02091 37.4469 12.2095 37.4469 16.1287C37.4422 20.0496 34.2552 23.2364 30.3392 23.2364Z" fill="#252525"/>
<path d="M33.6461 14.3063H32.1614V12.8216C32.1614 12.2043 31.6592 11.7037 31.0436 11.7037L29.6304 11.7022C29.0132 11.7022 28.5126 12.2043 28.5126 12.82V14.3047H27.0278C26.4106 14.3047 25.91 14.8069 25.91 15.4225V16.8357C25.91 17.4529 26.4122 17.9535 27.0278 17.9535H28.5126V19.4382C28.5126 20.0554 29.0147 20.556 29.6304 20.556H31.0436C31.6608 20.556 32.1614 20.0539 32.1614 19.4382V17.9535H33.6461C34.2633 17.9535 34.7639 17.4514 34.7639 16.8357L34.7654 15.4241C34.7654 14.8069 34.2633 14.3063 33.6461 14.3063ZM33.7176 16.8373C33.7176 16.8777 33.6865 16.9088 33.6461 16.9088H31.6405C31.3498 16.9088 31.1151 17.1435 31.1151 17.4343V19.4398C31.1151 19.4802 31.084 19.5113 31.0436 19.5113H29.6304C29.5899 19.5113 29.5589 19.4802 29.5589 19.4398V17.4343C29.5589 17.1435 29.3241 16.9088 29.0334 16.9088H27.0279C26.9874 16.9088 26.9563 16.8777 26.9563 16.8373V15.4241C26.9563 15.3836 26.9874 15.3526 27.0279 15.3526H29.0334C29.3241 15.3526 29.5589 15.1178 29.5589 14.8271V12.8216C29.5589 12.7811 29.5899 12.75 29.6304 12.75H31.0436C31.084 12.75 31.1151 12.7811 31.1151 12.8216V14.8271C31.1151 15.1178 31.3498 15.3526 31.6405 15.3526H33.6461C33.6865 15.3526 33.7176 15.3836 33.7176 15.4241V16.8373Z" fill="#252525"/>
</svg>
