<svg width="40" height="40" viewBox="0 0 40 40" fill="none" xmlns="http://www.w3.org/2000/svg">
<path d="M38.5946 16.9717C38.3731 16.4808 37.975 16.1051 37.4736 15.9165C36.9722 15.7265 36.4259 15.7429 35.9336 15.9629C35.4412 16.1844 35.0655 16.5826 34.8755 17.0854L33.973 19.465L33.9745 8.8598C33.9745 7.74932 33.0705 6.84534 31.96 6.84534C31.6023 6.84534 31.2656 6.93963 30.9752 7.10426V7.01446C30.9752 5.90397 30.0713 5 28.9608 5C27.8503 5 26.9463 5.90397 26.9463 7.01446V7.10575C26.6545 6.94112 26.3177 6.84684 25.9586 6.84684C24.8481 6.84684 23.9441 7.75081 23.9441 8.8613V9.98676C23.6523 9.82213 23.317 9.72785 22.9593 9.72785C21.8488 9.72785 20.9449 10.6318 20.9449 11.7423V19.1311C20.6934 18.6612 20.225 18.2586 19.6907 18.1194C19.5171 18.0745 19.3016 18.0446 19.0576 18.0715V11.7409C19.0576 10.6304 18.1537 9.72647 17.0432 9.72647C16.684 9.72647 16.3472 9.82075 16.0554 9.98538V8.85992C16.0554 7.74943 15.1514 6.84546 14.041 6.84546C13.6833 6.84546 13.3465 6.93974 13.0562 7.10437V7.01457C13.0562 5.90409 12.1522 5.00011 11.0417 5.00011C9.93123 5.00011 9.02726 5.90409 9.02726 7.01457V7.10587C8.73541 6.94124 8.39868 6.84695 8.03949 6.84695C6.929 6.84695 6.02503 7.75093 6.02503 8.86141V19.4667L5.12255 17.087C4.72895 16.0484 3.56456 15.5246 2.52591 15.9182C1.48876 16.3103 0.963439 17.4732 1.35554 18.5133L3.30115 23.6481C3.89682 25.4845 4.89657 27.1667 6.44257 28.9297V34.4867C6.44257 34.7695 6.67305 35 6.9559 35H16.5688C16.8517 35 17.0821 34.7695 17.0821 34.4867V32.7611C18.1522 32.5635 19.2941 32.1415 20.4795 31.444C20.9345 31.1761 21.3565 30.8648 21.7636 30.5655C22.1512 30.2796 22.5284 30.0012 22.919 29.7708V34.4853C22.919 34.7682 23.1495 34.9986 23.4323 34.9986H33.0422C33.3251 34.9986 33.5555 34.7681 33.5555 34.4853L33.5585 28.9283C35.1045 27.1667 36.1043 25.483 36.6999 23.6467L38.6455 18.5119C38.8326 18.0105 38.8161 17.464 38.5946 16.9717ZM16.0554 33.9719H7.4708V28.7336C7.4708 28.6079 7.4244 28.4852 7.34059 28.3924C5.81551 26.6832 4.84123 25.0713 4.27549 23.3189C4.2725 23.3114 4.2695 23.3024 4.26651 23.2949L2.31791 18.1479C2.12485 17.639 2.38227 17.0673 2.88963 16.8757C3.13508 16.7829 3.40449 16.7904 3.64545 16.8997C3.8864 17.0074 4.0705 17.2035 4.16329 17.4489L6.05952 22.4508C6.14782 22.6828 6.38878 22.819 6.63273 22.7741C6.87668 22.7292 7.0533 22.5166 7.0533 22.2697V8.85989C7.0533 8.31511 7.49628 7.87213 8.04107 7.87213C8.58585 7.87213 9.02883 8.31511 9.02883 8.85989V15.4273C9.02883 15.7101 9.25931 15.9406 9.54216 15.9406C9.82501 15.9406 10.0555 15.7101 10.0555 15.4273L10.054 8.85989V7.01455C10.054 6.46977 10.497 6.02679 11.0418 6.02679C11.5865 6.02679 12.0295 6.46977 12.0295 7.01455V15.4271C12.0295 15.71 12.26 15.9404 12.5429 15.9404C12.8257 15.9404 13.0562 15.7099 13.0562 15.4271V8.85974C13.0562 8.31496 13.4977 7.87197 14.041 7.87197C14.5857 7.87197 15.0287 8.31496 15.0287 8.85974V15.4256C15.0287 15.7084 15.2592 15.9389 15.5421 15.9389C15.8249 15.9389 16.0554 15.7084 16.0554 15.4256V11.7409C16.0554 11.1961 16.4984 10.7531 17.0431 10.7531C17.5879 10.7531 18.0309 11.1961 18.0309 11.7409V18.5251C17.775 18.7346 17.5131 19.0309 17.2587 19.441C17.2212 19.3976 17.1823 19.3542 17.1434 19.3108C16.205 18.2707 15.2232 17.7304 14.225 17.7049C13.342 17.681 12.4619 18.0626 11.6044 18.8334C11.0387 18.5804 10.4325 18.4832 9.8653 18.558C9.12895 18.6538 8.5408 19.0234 8.21004 19.5966C7.55453 20.7311 8.16963 22.3175 9.57795 23.1317C9.87728 23.3053 10.1946 23.4325 10.5163 23.5118C9.79346 24.4652 9.37738 25.5398 9.30405 26.6682C9.21574 28.0122 9.62882 29.3562 10.4669 30.4547C11.5595 31.8855 13.3809 32.8987 15.629 32.8987C15.7696 32.8987 15.9118 32.8927 16.0555 32.8852L16.0554 33.9719ZM21.1545 29.7378C20.7684 30.0222 20.3688 30.317 19.9587 30.5579C16.0871 32.8343 12.8109 31.8331 11.2826 29.8306C10.0314 28.1918 9.75004 25.5801 11.9426 23.4445C11.9441 23.443 11.9456 23.4415 11.9471 23.44C12.5158 22.9117 13.2252 22.5061 13.999 22.2681C14.2699 22.1843 14.4226 21.8969 14.3387 21.6261C14.2549 21.3552 13.9676 21.2025 13.6967 21.2863C12.8286 21.5527 12.0279 21.9987 11.3679 22.5779C10.9489 22.5944 10.5014 22.4776 10.0913 22.2412C9.18734 21.7188 8.73237 20.743 9.09754 20.11C9.26516 19.8196 9.58393 19.631 9.99703 19.5772C10.461 19.5158 10.9713 19.6311 11.4368 19.9004C11.6388 20.0172 11.8933 19.9843 12.0564 19.8181C12.7942 19.0803 13.5141 18.7136 14.1981 18.7316C14.9029 18.7496 15.6378 19.1761 16.3786 19.9977C16.5074 20.1429 16.6331 20.2941 16.7543 20.4482C15.8833 22.6214 16.2694 24.962 17.796 26.6263C17.8977 26.7371 18.0354 26.7925 18.1746 26.7925C18.2988 26.7925 18.4231 26.7476 18.5218 26.6578C18.7314 26.4662 18.7448 26.1414 18.5533 25.9319C16.9848 24.2213 17.1434 22.0438 17.8169 20.5756C17.8184 20.5741 17.8184 20.5727 17.8184 20.5712C18.3093 19.5025 18.896 18.9698 19.4303 19.1104C19.8448 19.2197 20.1292 19.6777 20.1127 19.8663C20.1112 19.8752 20.1127 19.8827 20.1112 19.8917C19.544 20.2359 19.101 20.8241 18.9004 21.535C18.637 22.4674 18.8495 23.3998 19.4856 24.0928C19.5874 24.2035 19.725 24.2589 19.8642 24.2589C19.9885 24.2589 20.1127 24.214 20.2115 24.1242C20.421 23.9326 20.4345 23.6078 20.2429 23.3983C19.8538 22.9748 19.725 22.3971 19.8897 21.8134C20.0543 21.2342 20.4689 20.7702 20.9493 20.6341C20.9568 20.6311 20.9643 20.6281 20.9717 20.6266C21.1917 20.6191 21.4656 20.6131 21.8308 20.8406C22.0613 20.9843 22.3636 20.9244 22.5208 20.7029C23.0326 19.9816 23.7345 19.4128 24.5502 19.0581C25.9914 18.4295 27.5973 18.5194 28.9563 19.3051C30.0892 19.9591 30.9004 21.0157 31.2386 22.2789C31.5769 23.542 31.4033 24.862 30.7493 25.995C30.1701 26.9977 29.2496 27.7655 28.1586 28.1561C27.1543 28.5153 26.6635 28.4195 26.0409 28.2968C25.5994 28.21 25.098 28.1112 24.4036 28.183C23.0791 28.3192 22.1004 29.0404 21.1545 29.7378ZM37.6835 18.1464L35.7334 23.2934C35.7304 23.3009 35.7274 23.3099 35.7244 23.3174C35.1587 25.0684 34.1844 26.6803 32.6593 28.3909C32.5755 28.4852 32.5291 28.6064 32.5291 28.7321V33.9704L23.9476 33.9719V29.3129C24.1287 29.2605 24.3158 29.2246 24.5103 29.2037C25.0521 29.1483 25.4383 29.2231 25.8453 29.3039C26.5293 29.4386 27.2372 29.5778 28.5078 29.1228C29.8279 28.6499 30.9414 27.7205 31.6418 26.5082C32.4335 25.1373 32.643 23.5419 32.2345 22.0125C31.8244 20.4844 30.8441 19.2063 29.4747 18.4146C27.8553 17.4792 25.8618 17.3685 24.1453 18.1168C23.3027 18.482 22.5618 19.0387 21.9766 19.7376L21.9721 11.7412C21.9721 11.1964 22.4151 10.7534 22.9599 10.7534C23.5032 10.7534 23.9447 11.1964 23.9447 11.7412V15.4259C23.9447 15.7088 24.1751 15.9392 24.458 15.9392C24.7409 15.9392 24.9713 15.7087 24.9713 15.4259V8.86007C24.9713 8.31529 25.4143 7.8723 25.9591 7.8723C26.5039 7.8723 26.9469 8.31529 26.9469 8.86007V15.4274C26.9469 15.7103 27.1773 15.9408 27.4602 15.9408C27.743 15.9408 27.9735 15.7103 27.9735 15.4274V7.01488C27.9735 6.4701 28.4165 6.02711 28.9613 6.02711C29.5061 6.02711 29.949 6.4701 29.949 7.01488V15.4274C29.949 15.7103 30.1795 15.9408 30.4624 15.9408C30.7452 15.9408 30.9757 15.7103 30.9757 15.4274L30.9742 8.86007C30.9742 8.31529 31.4157 7.8723 31.959 7.8723C32.5038 7.8723 32.9467 8.31529 32.9467 8.86007V22.2683C32.9467 22.5168 33.1234 22.7293 33.3673 22.7727C33.6113 22.8176 33.8522 22.6814 33.9405 22.4494L35.8368 17.4476C35.9295 17.2021 36.1136 17.0076 36.3561 16.8983C36.5971 16.7906 36.8649 16.7816 37.1119 16.8744C37.3559 16.9672 37.5504 17.1497 37.6597 17.3922C37.7674 17.6347 37.7763 17.9024 37.6835 18.1464Z" fill="#4E4E4E"/>
</svg>
