<svg width="40" height="40" viewBox="0 0 40 40" fill="none" xmlns="http://www.w3.org/2000/svg">
<path d="M26.2372 28.903V31.3587H30.3097C31.269 31.3587 32.0475 32.1372 32.0475 33.0972C32.0475 34.0566 31.269 34.835 30.3097 34.835H10.6442C9.68412 34.835 8.90566 34.0566 8.90566 33.0972C8.90566 32.1372 9.68412 31.3587 10.6442 31.3587H14.7159V28.903H7.07847C5.55324 28.903 4.30743 27.6572 4.30743 26.132V21.2297H2.39014C1.4308 21.2297 0.652344 20.4512 0.652344 19.4912C0.652344 18.5318 1.4308 17.7534 2.39014 17.7534H4.30743V7.93679C4.30743 6.41085 5.55324 5.16504 7.07847 5.16504H33.8754C35.4006 5.16504 36.6464 6.41085 36.6464 7.93679V17.381H37.6093C38.5693 17.381 39.3478 18.1595 39.3478 19.1188C39.3478 20.0789 38.5693 20.8573 37.6093 20.8573H36.6464V26.132C36.6464 27.6572 35.4006 28.903 33.8754 28.903H26.2372ZM15.9575 28.903V31.9795C15.9575 32.3223 15.6795 32.6003 15.3367 32.6003H10.6442C10.2021 32.6003 9.98114 33.1367 10.2929 33.4485C10.3823 33.5378 10.5069 33.5935 10.6442 33.5935H30.3097C30.751 33.5935 30.9727 33.0578 30.6609 32.746C30.5708 32.6559 30.4469 32.6003 30.3097 32.6003H25.6164C25.2736 32.6003 24.9956 32.3223 24.9956 31.9795V28.903H24.0025V31.9795C24.0025 32.3223 23.7245 32.6003 23.3817 32.6003H17.5714C17.2287 32.6003 16.9506 32.3223 16.9506 31.9795V28.903H15.9575ZM35.4048 17.381V7.93679C35.4048 7.0964 34.7151 6.40663 33.8754 6.40663H7.07847C6.23808 6.40663 5.54901 7.0964 5.54901 7.93679V17.7534H11.177L12.4341 9.83437C12.5847 8.88699 13.4694 8.24437 14.4168 8.395C15.1418 8.50972 15.7189 9.07491 15.8477 9.78369L15.8491 9.78862L17.6686 17.381H19.2846C19.9075 17.381 20.472 17.7132 20.7803 18.2362L21.898 14.1877C22.1528 13.2649 23.1072 12.7244 24.0299 12.9792C24.5888 13.134 25.0259 13.5521 25.2096 14.0933L26.359 17.381H35.4048ZM5.54901 21.2297V26.132C5.54901 26.9717 6.23808 27.6614 7.07847 27.6614C16.0103 27.6614 24.9428 27.6614 33.8754 27.6614C34.7151 27.6614 35.4048 26.9717 35.4048 26.132V20.8573H25.1315C25.0963 20.8573 25.0611 20.8538 25.0273 20.8482C24.7007 20.8285 24.3889 20.7173 24.1264 20.5307C24.0145 20.4512 23.911 20.3576 23.8195 20.2513L22.6835 24.3667V24.3681C22.6166 24.6433 22.4836 24.8988 22.2957 25.1114C22.1056 25.3261 21.8614 25.4964 21.5749 25.597C21.1245 25.7561 20.6515 25.7167 20.2503 25.5245C19.8484 25.3324 19.5211 24.9882 19.362 24.5377L18.0592 20.8573H16.3052C16.2658 20.8573 16.2271 20.8531 16.1898 20.8461C15.8365 20.8228 15.5028 20.6912 15.2318 20.4765C14.9236 20.233 14.6892 19.8783 14.6089 19.4679L14.4914 18.9759L14.3872 19.6326C14.3506 20.0789 14.1458 20.478 13.8368 20.7644C13.525 21.053 13.1097 21.2297 12.6551 21.2297H5.54901ZM22.7609 28.903H18.1922V31.3587H22.7609V28.903ZM2.03892 19.8424C2.12902 19.9325 2.25289 19.9881 2.39014 19.9881C5.81225 19.9881 9.23365 19.9881 12.6551 19.9881C12.9197 19.9881 13.1316 19.7875 13.1513 19.5299H13.1527C13.1534 19.513 13.1555 19.4961 13.1583 19.4792L13.7566 15.7108C13.7953 15.4715 13.9734 15.266 14.2246 15.2068C14.5569 15.1273 14.8898 15.3328 14.9686 15.665L15.8111 19.1801C15.8174 19.1977 15.8224 19.2152 15.8266 19.2335C15.8773 19.4468 16.0617 19.6017 16.2686 19.6122L16.3805 19.6157H18.497V19.6164C18.7525 19.6164 18.9918 19.7755 19.0812 20.0303L20.5304 24.1253C20.6663 24.5026 21.1343 24.5567 21.3694 24.2914C21.4222 24.2323 21.4602 24.1612 21.4792 24.0852C21.4827 24.069 21.4862 24.0528 21.4905 24.0373L23.0973 18.2172C23.1494 18.0279 23.2909 17.8667 23.4901 17.7977C23.8125 17.6851 24.1658 17.8554 24.2777 18.1785L24.6641 19.2821C24.7289 19.4679 24.9076 19.6045 25.0956 19.6136L25.1948 19.6157H37.6093C38.0513 19.6157 38.2723 19.0794 37.9605 18.7676C37.8711 18.6782 37.7465 18.6226 37.6093 18.6226H25.9212V18.6205C25.665 18.6205 25.4257 18.4607 25.3363 18.2052L24.0405 14.5009C23.8702 14.0124 23.2163 14.0631 23.091 14.5178L21.4722 20.3815C21.3159 21.0101 20.4833 21.0199 20.2834 20.454L19.7759 19.0196C19.771 19.0069 19.7674 18.9942 19.7632 18.9809C19.7041 18.7711 19.5098 18.6226 19.2846 18.6226H17.1815V18.6198C16.9014 18.6198 16.648 18.4291 16.5804 18.1447L14.6469 10.0772C14.6406 10.0561 14.635 10.0343 14.6308 10.0117C14.5653 9.66474 14.155 9.48807 13.8544 9.70626C13.7517 9.78087 13.6777 9.89419 13.6559 10.0279L12.3243 18.4213C12.2996 18.7423 12.0322 18.9949 11.7049 18.9949C8.60019 18.9949 5.49552 18.9949 2.39014 18.9949C1.94883 18.9949 1.72712 19.5306 2.03892 19.8424Z" fill="#4E4E4E"/>
</svg>
