<svg width="34" height="34" viewBox="0 0 34 34" fill="none" xmlns="http://www.w3.org/2000/svg">
<path d="M24.6869 0H9.31301C7.76378 0 6.50431 1.25947 6.50431 2.8087V31.1913C6.50431 32.7405 7.76378 34 9.31301 34H24.6869C26.2362 34 27.4956 32.7405 27.4956 31.1913V2.8087C27.4956 1.25947 26.2362 0 24.6869 0ZM9.31301 0.886975H24.6869C25.7468 0.886975 26.6086 1.74878 26.6086 2.8087V28.3826H7.39136V2.8087C7.39136 1.74878 8.25309 0.886975 9.31301 0.886975ZM24.6869 33.113H9.31301C8.25309 33.113 7.39128 32.2511 7.39128 31.1912V29.2695H26.6086V31.1912C26.6086 32.2511 25.7468 33.113 24.6869 33.113ZM11.6782 16.852H14.7826V19.9563C14.7826 20.5269 15.2468 20.9911 15.8174 20.9911H18.1826C18.7532 20.9911 19.2174 20.5269 19.2174 19.9563V16.852H22.3217C22.8923 16.852 23.3565 16.3878 23.3565 15.8172V13.452C23.3565 12.8814 22.8923 12.4172 22.3217 12.4172H19.2174V9.31286C19.2174 8.74226 18.7532 8.27807 18.1826 8.27807H15.8174C15.2468 8.27807 14.7826 8.74226 14.7826 9.31286V12.4172H11.6782C11.1076 12.4172 10.6434 12.8814 10.6434 13.452V15.8172C10.6434 16.3878 11.1076 16.852 11.6782 16.852ZM11.5304 13.452C11.5304 13.3707 11.5969 13.3042 11.6782 13.3042H15.2261C15.4714 13.3042 15.6695 13.1061 15.6695 12.8607V9.31285C15.6695 9.23155 15.7361 9.16503 15.8174 9.16503H18.1826C18.2639 9.16503 18.3304 9.23155 18.3304 9.31285V12.8607C18.3304 13.1061 18.5285 13.3042 18.7739 13.3042H22.3217C22.403 13.3042 22.4695 13.3707 22.4695 13.452V15.8172C22.4695 15.8985 22.403 15.965 22.3217 15.965H18.7739C18.5285 15.965 18.3304 16.1631 18.3304 16.4085V19.9563C18.3304 20.0376 18.2639 20.1042 18.1826 20.1042H15.8174C15.7361 20.1042 15.6695 20.0376 15.6695 19.9563V16.4085C15.6695 16.1631 15.4715 15.965 15.2261 15.965H11.6782C11.5969 15.965 11.5304 15.8985 11.5304 15.8172V13.452ZM34 14.6346C34 16.5445 33.1514 18.3347 31.6717 19.5497C31.5889 19.6177 31.4899 19.6502 31.3908 19.6502C31.2622 19.6502 31.1351 19.594 31.0479 19.4876C30.8927 19.2984 30.9193 19.019 31.11 18.8638C32.3828 17.8187 33.113 16.2769 33.113 14.6344C33.113 12.992 32.3828 11.4502 31.11 10.405C30.9208 10.2498 30.8927 9.97044 31.0479 9.78122C31.2031 9.592 31.4825 9.56392 31.6717 9.71914C33.1515 10.9328 34 12.7248 34 14.6346ZM31.6347 14.6346C31.6347 15.8335 31.1011 16.9584 30.1713 17.7212C30.0885 17.7892 29.9894 17.8217 29.8904 17.8217C29.7618 17.8217 29.6346 17.7655 29.5474 17.6591C29.3922 17.4699 29.4188 17.1905 29.6095 17.0353C30.3324 16.441 30.7478 15.5659 30.7478 14.6346C30.7478 13.7032 30.3324 12.8281 29.6095 12.2339C29.4203 12.0786 29.3922 11.7993 29.5474 11.61C29.7027 11.4208 29.982 11.3927 30.1712 11.548C31.1011 12.3107 31.6347 13.4358 31.6347 14.6346ZM2.88998 18.864C3.0792 19.0192 3.10729 19.2986 2.95207 19.4878C2.86485 19.5942 2.73772 19.6504 2.60911 19.6504C2.51007 19.6504 2.41103 19.6179 2.32824 19.5499C0.848488 18.3362 0 16.5446 0 14.6348C0 12.725 0.848526 10.9347 2.32824 9.71967C2.51746 9.56445 2.79686 9.59253 2.95205 9.78175C3.10725 9.97097 3.08066 10.2504 2.88997 10.4056C1.61718 11.4507 0.886914 12.9925 0.886914 14.6349C0.886914 16.2774 1.61719 17.8188 2.88998 18.864ZM3.25216 14.6346C3.25216 15.5659 3.66757 16.441 4.39041 17.0353C4.57963 17.1905 4.60772 17.4699 4.4525 17.6591C4.36528 17.7656 4.23815 17.8217 4.10954 17.8217C4.0105 17.8217 3.91145 17.7892 3.82867 17.7212C2.89886 16.9584 2.36519 15.8335 2.36519 14.6346C2.36519 13.4358 2.89886 12.3108 3.82867 11.548C4.01789 11.3928 4.29729 11.4209 4.45248 11.6101C4.60768 11.7993 4.58109 12.0787 4.3904 12.2339C3.66751 12.8282 3.25216 13.7033 3.25216 14.6346Z" fill="#252525"/>
</svg>
