<svg width="31" height="24" viewBox="0 0 31 24" fill="none" xmlns="http://www.w3.org/2000/svg">
<path d="M27.4353 23.0479H27.4346H3.51935C2.89753 23.0479 2.40501 22.8454 2.00587 22.4463C1.60677 22.0472 1.40357 21.554 1.40259 20.9308V3.4947C1.40259 2.87321 1.60541 2.38081 2.00549 1.98159C2.40626 1.58168 2.89881 1.37891 3.51811 1.37793H27.4346C28.0548 1.37793 28.5467 1.5806 28.9461 1.98083C29.3459 2.38153 29.5488 2.87466 29.5497 3.49542V20.9328C29.5497 21.553 29.347 22.0457 28.9465 22.4463C28.5459 22.8468 28.054 23.0488 27.4353 23.0479ZM15.2025 12.8192L15.4762 12.9982L15.7498 12.8192L28.7041 4.34876L29.0311 4.13494L28.9027 3.76594L28.4039 2.33287L28.1942 1.73024L27.6592 2.078L15.4762 9.99729L3.29312 2.078L2.75812 1.73024L2.5484 2.33287L2.04965 3.76594L1.92123 4.13494L2.24824 4.34876L15.2025 12.8192Z" stroke="#4E4E4E"/>
</svg>
