<svg width="162" height="98" viewBox="0 0 162 98" fill="none" xmlns="http://www.w3.org/2000/svg">
<path d="M74.9114 50.4846C74.9114 54.4925 71.6898 57.7348 67.7203 57.7348C63.7509 57.7348 60.5293 54.4925 60.5293 50.4846C60.5293 46.4825 63.7509 43.2344 67.7203 43.2344C71.6898 43.2344 74.9114 46.4825 74.9114 50.4846Z" fill="#0075FF"/>
<path d="M90.1841 39.5625C84.3047 39.5625 79.4492 44.4637 79.4492 50.3857V76.7596C79.4492 82.6816 84.3047 87.6233 90.1841 87.6233H125.484C131.358 87.6233 136.224 82.6758 136.224 76.7596V50.3857C136.224 44.4637 131.358 39.5625 125.484 39.5625H90.1841ZM107.845 52.1432C111.245 52.1432 114.001 54.9273 114.001 58.3668C113.995 60.5825 112.815 62.6299 110.929 63.7436V71.8929C110.934 73.6214 109.536 75.025 107.834 75.0192C106.131 75.0134 104.762 73.6156 104.767 71.8929L104.773 63.7436C102.869 62.6357 101.689 60.5883 101.678 58.3668C101.678 54.9273 104.439 52.1432 107.845 52.1432Z" fill="#0075FF"/>
<path d="M107.842 13.3573C96.952 13.3573 88 22.3534 88 33.3271V44.185H88.0058C88 45.4205 88.4832 46.6095 89.3519 47.4796C90.2206 48.3554 91.3941 48.8427 92.6253 48.8427C93.8449 48.8369 95.0128 48.3438 95.8757 47.468C96.7328 46.598 97.2161 45.4148 97.2103 44.1852V33.3214C97.2103 27.3762 101.91 22.6317 107.842 22.6317C113.773 22.6317 118.479 27.3762 118.479 33.3214V44.1794C118.473 45.409 118.956 46.5922 119.813 47.468C120.676 48.3438 121.844 48.8369 123.064 48.8369C124.289 48.8427 125.468 48.3554 126.337 47.4796C127.206 46.6038 127.689 45.4206 127.683 44.1792V33.3213C127.683 22.3474 118.732 13.3516 107.841 13.3516L107.842 13.3573Z" fill="#0075FF"/>
<path d="M39.5897 22.637C32.019 22.637 25.7656 28.9476 25.7656 36.5806V64.3918C25.7656 72.0248 32.0247 78.3354 39.5897 78.3354H67.1739L67.1796 78.3296C68.405 78.3354 69.5843 77.8482 70.453 76.9724C71.316 76.0965 71.805 74.9075 71.7992 73.672C71.7934 72.4423 71.3045 71.2649 70.4415 70.3949C69.5729 69.5307 68.3993 69.0435 67.1797 69.0493H39.5955C36.9664 69.0493 34.976 67.0424 34.976 64.3918L34.9703 36.5746C34.9703 33.9239 36.9608 31.9171 39.5898 31.9171H76.3844C77.604 31.9229 78.7776 31.4357 79.6462 30.5714C80.5149 29.7014 81.0039 28.524 81.0039 27.2944C81.0096 26.0589 80.5264 24.8699 79.6577 23.994C78.7891 23.1181 77.6097 22.631 76.3843 22.6368L39.5897 22.637Z" fill="#0075FF"/>
<path d="M55.9739 50.4846C55.9739 54.4925 52.758 57.7348 48.7828 57.7348C44.8134 57.7348 41.5918 54.4925 41.5918 50.4846C41.5918 46.4825 44.8134 43.2344 48.7828 43.2344C52.758 43.2344 55.9739 46.4825 55.9739 50.4846Z" fill="#0075FF"/>
</svg>
