<svg width="70" height="71" viewBox="0 0 70 71" fill="none" xmlns="http://www.w3.org/2000/svg">
<path opacity="0.09" d="M66.2501 0.304239C68.3673 0.472872 69.775 2.46901 69.4877 4.57343L68.8633 9.14547C68.5767 11.244 66.6887 12.6735 64.5873 12.9386C62.1813 13.2422 60.3071 14.1047 58.9647 15.526C56.9882 17.6187 55.7804 20.4274 55.3412 23.952C55.041 26.3606 54.8947 28.8978 54.9022 31.5635C54.9082 33.689 56.6765 35.3519 58.802 35.3519H66C68.2091 35.3519 70 37.1427 70 39.3519V66.2124C70 68.4215 68.2091 70.2124 66 70.2124H45.8353C43.6262 70.2124 41.8353 68.4215 41.8353 66.2124V28.7433C41.8353 18.61 44.3608 11.0101 49.4118 5.94349C53.7962 1.63911 59.4089 -0.240641 66.2501 0.304239ZM24.4148 0.304239C26.532 0.472873 27.9398 2.46901 27.6524 4.57343L27.028 9.14547C26.7414 11.244 24.8534 12.6735 22.7521 12.9386C20.346 13.2422 18.4718 14.1047 17.1294 15.526C15.1529 17.6187 13.9451 20.4274 13.5059 23.952C13.2057 26.3606 13.0594 28.8978 13.0669 31.5635C13.0729 33.689 14.8412 35.3519 16.9667 35.3519H24.1647C26.3738 35.3519 28.1647 37.1427 28.1647 39.3519V66.2124C28.1647 68.4215 26.3738 70.2124 24.1647 70.2124H4C1.79086 70.2124 0 68.4215 0 66.2124V28.7433C0 18.61 2.52549 11.0101 7.57647 5.94349C11.9609 1.63911 17.5736 -0.240641 24.4148 0.304239Z" fill="#0075FF"/>
</svg>
