<svg width="40" height="41" viewBox="0 0 40 41" fill="none" xmlns="http://www.w3.org/2000/svg">
<path d="M39.3807 36.2983H34.2044C34.1355 36.2983 34.0675 36.3094 34.0026 36.3316L24.8551 39.4525C23.899 39.749 23.19 39.7183 22.557 39.3538L18.6991 37.1348L20.5305 33.9677H26.2824C26.6278 33.9677 26.9074 33.6877 26.9074 33.3427C26.9074 32.9978 26.6274 32.7178 26.2824 32.7178H17.3998C16.9629 32.7178 16.617 32.5702 16.3721 32.2799C16.1476 32.0137 16.0187 31.6309 16.0187 31.23C16.0187 30.6735 16.3099 29.7316 17.3998 29.7316H22.6623C22.7681 29.7316 22.8722 29.7044 22.9646 29.6533L28.3569 26.6707C29.1535 26.2306 30.0261 26.2382 30.8151 26.692L34.0275 28.5429C34.1226 28.5976 34.2302 28.6265 34.3396 28.6265H39.3803C39.7257 28.6265 40.0053 28.3465 40.0053 28.0015C40.0053 27.6566 39.7252 27.3766 39.3803 27.3766H34.5067L31.4391 25.6087C30.2732 24.938 28.9295 24.9255 27.752 25.5767L24.2692 27.5028L24.6226 26.8916C24.7057 26.748 24.728 26.5773 24.6853 26.4169C24.6422 26.2568 24.5373 26.1199 24.3937 26.0373L22.0947 24.7126C22.3512 24.0165 22.3872 23.2604 22.1912 22.5296C21.9409 21.5953 21.3413 20.8147 20.5034 20.3316C18.9569 19.4408 17.018 19.8221 15.9089 21.1477L13.6073 19.8217C13.3077 19.6497 12.9272 19.7519 12.7538 20.0502L11.1371 22.8452C11.054 22.9888 11.0318 23.1595 11.0745 23.32C11.1176 23.48 11.2225 23.6169 11.3661 23.6996C11.915 24.0156 12.3071 24.5268 12.4711 25.138C12.6351 25.7505 12.5507 26.3902 12.2324 26.94C11.5763 28.0744 10.1206 28.4656 8.98573 27.8117C8.68702 27.6397 8.30474 27.7419 8.13272 28.0402L6.51604 30.8353C6.43292 30.9788 6.41025 31.1495 6.45336 31.31C6.49648 31.47 6.60139 31.6069 6.74496 31.6896L17.5309 37.9056L21.932 40.4371C22.4668 40.7447 23.0482 40.8989 23.6909 40.8989C24.1714 40.8989 24.6857 40.8131 25.2409 40.6407L34.3071 37.5478H39.3798C39.7252 37.5478 40.0048 37.2677 40.0048 36.9228C40.0048 36.5779 39.7248 36.2978 39.3798 36.2978L39.3807 36.2983ZM8.93061 29.1599C10.5535 29.7524 12.4222 29.1119 13.3161 27.5659C13.8015 26.7267 13.9309 25.7497 13.6802 24.8144C13.485 24.085 13.0761 23.4489 12.5076 22.9755L13.525 21.2161L15.78 22.5154C16.0792 22.6883 16.461 22.5852 16.633 22.2869C17.2896 21.1526 18.7462 20.7618 19.8802 21.4153C20.4287 21.7313 20.8212 22.2425 20.9848 22.8537C21.1488 23.4662 21.0643 24.1063 20.7465 24.6557C20.6634 24.7993 20.6407 24.97 20.6838 25.1305C20.7265 25.2905 20.8319 25.4274 20.9754 25.5101L23.2282 26.8085L22.2605 28.482H17.4003C15.6729 28.482 14.7688 29.8645 14.7688 31.2304C14.7688 31.9319 14.999 32.5911 15.4169 33.0863C15.9036 33.6632 16.5895 33.9682 17.4003 33.9682H19.0867L18.9 34.2904L17.6158 36.5112L7.91313 30.9193L8.93061 29.1599ZM10.437 16.7017C11.0558 16.7017 11.675 16.5417 12.2542 16.2212L15.7311 14.2982L15.384 14.8988C15.3008 15.0424 15.2782 15.213 15.3213 15.3735C15.364 15.5335 15.4693 15.6704 15.6129 15.7531L18.4106 17.3658C18.7093 17.5378 19.0916 17.4356 19.2641 17.1373C19.9188 16.0034 21.3768 15.6144 22.5117 16.2687C23.0615 16.5857 23.4549 17.0978 23.6189 17.7098C23.7829 18.3215 23.6985 18.9602 23.3816 19.5083C23.2984 19.6519 23.2762 19.823 23.3189 19.9831C23.362 20.1435 23.4669 20.28 23.6105 20.3627L26.4082 21.9749C26.5064 22.0313 26.614 22.0585 26.7198 22.0585C26.9358 22.0585 27.1457 21.9464 27.2617 21.7464L33.4941 10.9707C33.5772 10.8266 33.5999 10.6555 33.5563 10.495C33.5132 10.3346 33.4079 10.1981 33.2634 10.1154L30.9577 8.79524C31.5498 7.17234 30.9106 5.30407 29.3664 4.41061C28.5285 3.92654 27.5528 3.79719 26.6185 4.0479C25.8877 4.24348 25.2507 4.65331 24.7764 5.22362L22.4899 3.90565C22.4837 3.90165 22.4801 3.89543 22.4739 3.89187L18.0728 1.3604C17.1384 0.822991 16.061 0.754537 14.7643 1.15726L5.69815 4.2497H0.624978C0.279595 4.2497 0 4.52974 0 4.87468C0 5.21962 0.28004 5.49966 0.624978 5.49966H5.80127C5.87017 5.49966 5.93818 5.48855 6.00308 5.46632L15.151 2.34587C16.1076 2.04894 16.8162 2.07961 17.4492 2.44367L21.3044 4.66132L19.4721 7.82977H13.7237C13.3784 7.82977 13.0988 8.10981 13.0988 8.45475C13.0988 8.79968 13.3788 9.07972 13.7237 9.07972H19.8451C19.8566 9.07972 19.8682 9.08061 19.8793 9.07972H22.6068C23.0437 9.07972 23.3891 9.2273 23.6345 9.51756C23.859 9.78382 23.9879 10.1665 23.9879 10.5675C23.9879 11.124 23.6972 12.0659 22.6072 12.0659H17.3447C17.2389 12.0659 17.1349 12.093 17.0424 12.1442L11.6501 15.1264C10.8531 15.5664 9.97964 15.5589 9.19153 15.1046L5.97907 13.2537C5.88395 13.199 5.77638 13.1701 5.66703 13.1701H0.624978C0.279595 13.1701 0 13.4501 0 13.7951C0 14.14 0.28004 14.42 0.624978 14.42H5.49856L8.56611 16.1874C9.15864 16.5288 9.7974 16.6999 10.437 16.6999V16.7017ZM25.2378 10.5684C25.2378 9.86695 25.0076 9.20774 24.5897 8.71212C24.1034 8.13515 23.4176 7.83021 22.6068 7.83021H20.9199L22.3885 5.29074L24.6471 6.5927C24.7906 6.67494 24.9613 6.69716 25.1214 6.65493C25.2814 6.61182 25.4183 6.50691 25.5005 6.36334C25.8175 5.81348 26.3291 5.42009 26.9412 5.25607C27.5524 5.09249 28.1916 5.1765 28.7397 5.49343C29.8727 6.14908 30.2621 7.60618 29.6082 8.74145C29.5255 8.88547 29.5033 9.05617 29.5464 9.21663C29.59 9.3771 29.6953 9.51356 29.8394 9.5958L32.097 10.8884L26.4913 20.5809L24.7302 19.5661C24.9858 18.8713 25.0213 18.1166 24.8262 17.3871C24.5755 16.4519 23.975 15.6704 23.1353 15.1864C21.588 14.2942 19.649 14.6747 18.5404 15.9989L16.7793 14.9837L17.743 13.3181H22.6068C24.3341 13.3181 25.2378 11.9352 25.2378 10.5693V10.5684Z" fill="#4E4E4E"/>
</svg>
