<svg width="48" height="40" viewBox="0 0 48 40" fill="none" xmlns="http://www.w3.org/2000/svg">
<path d="M47.0025 27.8758L43.8544 18.8221C42.7596 15.6738 40.1104 13.2607 36.8956 12.4581C37.7106 8.03386 35.4934 4.53977 32.7944 3.67674C31.0092 3.10598 28.8362 3.60967 27.5104 4.90166C26.0639 6.3112 25.5382 8.70754 26.104 11.3117C26.6604 13.8727 28.1189 15.863 29.9104 16.5058C30.6393 16.7675 31.8097 16.9307 33.3948 16.3505L33.2159 19.0438C33.1084 20.6606 33.3844 22.3039 34.0137 23.7962L36.4463 29.5645C36.9515 30.7627 37.2077 32.0298 37.2077 33.3309V39.6226C37.2077 39.831 37.3767 40 37.5851 40C37.7935 40 37.9624 39.831 37.9624 39.6226V33.3309C37.9624 31.9286 37.6863 30.5627 37.1417 29.2713L34.7091 23.503C34.1252 22.1185 33.8694 20.5939 33.969 19.0939L34.1881 15.7971C34.1968 15.6648 34.1354 15.5374 34.0264 15.4619C33.9172 15.3862 33.7765 15.3735 33.6556 15.4285C32.0078 16.176 30.8482 16.0406 30.1653 15.7956C28.6402 15.2483 27.3355 13.4253 26.8416 11.1515C26.3389 8.8383 26.797 6.65064 28.0371 5.44223C29.1717 4.33647 31.0335 3.90609 32.5645 4.39562C35.0157 5.1794 37.0026 8.48594 36.0845 12.6625C36.0629 12.7605 36.0813 12.8631 36.1356 12.9475C36.1899 13.0319 36.2755 13.0913 36.3736 13.1124L36.4267 13.1238C39.5248 13.7899 42.0978 16.0683 43.1416 19.0699L46.2898 28.1237C46.7738 29.5158 47.0193 30.9694 47.0193 32.444V39.6225C47.0193 39.8309 47.1883 39.9999 47.3967 39.9999C47.6051 39.9999 47.774 39.8309 47.774 39.6225V32.444C47.7739 30.8848 47.5144 29.3478 47.0025 27.8758Z" fill="#252525"/>
<path d="M39.0635 16.0006C38.9806 15.8094 38.7586 15.7217 38.5672 15.8045C38.3759 15.8873 38.2881 16.1095 38.371 16.3008L45.0979 31.8224C45.2746 32.2301 45.2788 32.681 45.1098 33.092C44.9414 33.5014 44.6231 33.8174 44.213 33.982L44.1757 33.9969C43.3597 34.3246 42.4195 33.9287 42.0799 33.1149L36.0466 18.6554C35.9663 18.463 35.7453 18.3723 35.553 18.4524C35.3606 18.5327 35.2698 18.7537 35.35 18.946L41.3834 33.4056C41.7624 34.3137 42.6521 34.8664 43.5832 34.8664C43.8749 34.8664 44.1708 34.8121 44.4561 34.6976L44.4944 34.6822C45.0948 34.4413 45.5612 33.9784 45.8076 33.379C46.0548 32.7779 46.0485 32.1185 45.79 31.5222L39.0635 16.0006Z" fill="#252525"/>
<path d="M31.9963 0.999455C33.5262 0.703981 35.9145 0.527847 38.6048 1.36776C41.2108 2.18126 43.0381 3.61957 44.1121 4.68298C44.1857 4.75581 44.2816 4.79213 44.3776 4.79213C44.4748 4.79213 44.572 4.75477 44.6458 4.68024C44.7924 4.53213 44.7913 4.29326 44.6431 4.14656C43.5095 3.02428 41.5807 1.50606 38.8296 0.647282C35.9892 -0.239424 33.468 -0.0536677 31.853 0.258411C31.6484 0.297939 31.5145 0.495866 31.5542 0.70049C31.5938 0.905209 31.7914 1.03917 31.9963 0.999455Z" fill="#252525"/>
<path d="M38.8528 2.71721C36.08 1.63672 33.552 1.64823 31.9194 1.84814C31.7127 1.87352 31.5655 2.06173 31.5908 2.26862C31.616 2.47541 31.8045 2.62277 32.0112 2.5973C33.5576 2.40786 35.9524 2.39701 38.5788 3.42051C39.1995 3.66231 39.8073 3.95278 40.3853 4.28364C40.4444 4.3175 40.5089 4.33354 40.5724 4.33354C40.7033 4.33354 40.8305 4.26533 40.9002 4.14363C41.0038 3.96278 40.941 3.73222 40.7602 3.62872C40.1498 3.27919 39.5081 2.97259 38.8528 2.71721Z" fill="#252525"/>
<path d="M15.2055 3.67665C12.5064 4.53968 10.2893 8.03376 11.1043 12.458C7.88932 13.2606 5.24024 15.6738 4.14552 18.822L0.997374 27.8757C0.485483 29.348 0.225952 30.885 0.225952 32.4441V39.6226C0.225952 39.831 0.394916 40 0.603314 40C0.811712 40 0.980676 39.831 0.980676 39.6226V32.4441C0.980676 30.9696 1.22615 29.516 1.71021 28.1237L4.85835 19.0699C5.90204 16.0683 8.47508 13.7898 11.5734 13.1237L11.6262 13.1123C11.7244 13.0912 11.81 13.0318 11.8643 12.9474C11.9185 12.863 11.9369 12.7604 11.9154 12.6624C10.9973 8.48584 12.9841 5.1793 15.4354 4.39552C16.9663 3.90599 18.8282 4.33637 19.9628 5.44214C21.2028 6.65054 21.661 8.8383 21.1583 11.1514C20.6643 13.4252 19.3596 15.2482 17.8346 15.7955C17.1518 16.0404 15.992 16.1758 14.3443 15.4284C14.2233 15.3735 14.0828 15.3864 13.9735 15.4618C13.8645 15.5373 13.8031 15.6646 13.8118 15.797L14.0309 19.0938C14.1305 20.5937 13.8746 22.1183 13.2908 23.5029L10.8582 29.2712C10.3135 30.5626 10.0374 31.9284 10.0374 33.3308V39.6225C10.0374 39.8309 10.2063 39.9999 10.4147 39.9999C10.6231 39.9999 10.7921 39.8309 10.7921 39.6225V33.3308C10.7921 32.0297 11.0483 30.7626 11.5536 29.5644L13.9862 23.7961C14.6155 22.3038 14.8914 20.6604 14.784 19.0437L14.605 16.3504C16.1902 16.9307 17.3605 16.7673 18.0895 16.5057C19.8809 15.8629 21.3394 13.8725 21.8959 11.3116C22.4617 8.70745 21.936 6.31111 20.4895 4.90157C19.1636 3.60957 16.9908 3.10589 15.2055 3.67665Z" fill="#252525"/>
<path d="M12.4469 18.4525C12.2546 18.3723 12.0336 18.4631 11.9533 18.6555L5.91997 33.115C5.58034 33.9288 4.64005 34.3244 3.82363 33.9967L3.78646 33.9818C3.37683 33.8175 3.05853 33.5014 2.89022 33.0921C2.72116 32.6811 2.72541 32.2301 2.9022 31.8224L9.62887 16.3007C9.71179 16.1095 9.62396 15.8873 9.43273 15.8044C9.24141 15.7215 9.01933 15.8093 8.93641 16.0005L2.20965 31.5222C1.95116 32.1185 1.94502 32.778 2.1921 33.3791C2.43861 33.9785 2.90494 34.4414 3.50485 34.682L3.54306 34.6974C3.82872 34.812 4.12467 34.8663 4.41656 34.8663C5.34789 34.8663 6.23752 34.3136 6.61639 33.4057L12.6497 18.9461C12.73 18.7537 12.6392 18.5327 12.4469 18.4525Z" fill="#252525"/>
<path d="M3.62221 4.79213C3.71815 4.79213 3.81419 4.75581 3.88768 4.68298C4.96175 3.61967 6.78903 2.18126 9.395 1.36776C12.0855 0.527847 14.4738 0.703981 16.0035 0.999455C16.2082 1.03908 16.406 0.905115 16.4455 0.700584C16.4851 0.49596 16.3512 0.298034 16.1467 0.258505C14.5317 -0.0535734 12.0105 -0.23933 9.17009 0.647376C6.41903 1.50616 4.49024 3.02428 3.35655 4.14665C3.20843 4.29335 3.20721 4.53222 3.3539 4.68034C3.42777 4.75477 3.52504 4.79213 3.62221 4.79213Z" fill="#252525"/>
<path d="M16.0804 1.84814C14.4478 1.64814 11.9198 1.63673 9.14698 2.71721C8.4915 2.97268 7.8498 3.27929 7.2397 3.62863C7.05884 3.73222 6.99611 3.96278 7.09969 4.14354C7.16941 4.26533 7.29658 4.33345 7.42753 4.33345C7.49111 4.33345 7.55555 4.31741 7.6146 4.28354C8.19244 3.95269 8.80018 3.66231 9.42094 3.42042C12.0474 2.39692 14.4422 2.40796 15.9885 2.59721C16.1961 2.62268 16.3836 2.47532 16.409 2.26852C16.4345 2.06163 16.2873 1.87343 16.0804 1.84814Z" fill="#252525"/>
</svg>
