<svg width="40" height="40" viewBox="0 0 40 40" fill="none" xmlns="http://www.w3.org/2000/svg">
<path fill-rule="evenodd" clip-rule="evenodd" d="M33.1566 27.3753C29.6365 32.8278 25.4491 36.9847 21.9548 38.4943C21.1398 38.8463 20.7391 38.8024 20.6505 38.7636C20.6002 38.642 20.6928 38.2568 21.3861 37.5528C21.4076 37.533 21.4493 37.4961 21.5079 37.4461C23.178 35.9967 24.4067 34.6179 25.1594 33.349C25.8375 32.2062 26.5192 30.6664 25.9159 29.8183C25.7013 29.517 25.256 29.1961 24.3537 29.3805C23.9647 29.4602 23.4546 29.7448 22.6545 30.204C22.1511 30.4921 21.2196 31.0265 20.937 31.0516C20.7902 31.0457 20.6023 30.921 20.6061 30.7225C20.6101 30.6209 20.6646 30.5116 20.7646 30.4114C21.5845 29.5894 23.9661 28.1553 25.077 27.2598C26.2803 26.2902 27.4295 25.2609 28.4928 24.2002C31.2814 21.4181 34.2124 18.0908 34.8054 14.5102C35.2985 11.5334 34.4937 8.62651 32.5396 6.32401C30.7629 4.23097 28.136 2.78578 25.143 2.25296C24.443 2.12828 23.7213 2.07105 22.97 2.07977C24.3272 1.50762 25.7861 1.21184 27.2885 1.21184C33.5777 1.21184 38.6947 6.47322 38.6947 12.9403C38.6949 16.5526 36.5728 22.0837 33.1566 27.3753ZM19.3492 38.7636C19.2608 38.8024 18.8601 38.8464 18.0449 38.4943C14.5507 36.9847 10.363 32.8278 6.84302 27.3753C3.42702 22.0838 1.3049 16.5526 1.3049 12.9403C1.3049 6.47322 6.42199 1.21184 12.7114 1.21184C14.2135 1.21184 15.6725 1.50762 17.0296 2.07977C16.2783 2.07105 15.5567 2.12828 14.8567 2.25296C11.8637 2.78578 9.23667 4.23107 7.46007 6.32401C5.50603 8.62651 4.7012 11.5333 5.19423 14.5102C5.78713 18.0908 8.71805 21.4181 11.5069 24.2002C12.5701 25.2608 13.7191 26.2902 14.9227 27.2598C16.0337 28.1554 18.4149 29.5891 19.2351 30.4114C19.3539 30.5305 19.4263 30.6841 19.3794 30.8262C19.3404 30.9426 19.2254 31.0239 19.0627 31.0515C18.7802 31.0265 17.8486 30.492 17.3453 30.2039C16.5451 29.7446 16.0349 29.4601 15.6459 29.3804C14.7439 29.196 14.2984 29.5169 14.0837 29.8182C13.4805 30.6663 14.1622 32.206 14.8403 33.3489C15.593 34.6178 16.8217 35.9966 18.4919 37.446C18.5504 37.4961 18.5921 37.5329 18.6136 37.5528C19.3071 38.2568 19.3997 38.6419 19.3492 38.7636ZM31.761 18.5363C32.6778 17.1697 33.3732 15.7393 33.6097 14.3115C34.0434 11.6923 33.3354 9.1349 31.6156 7.10875C30.0209 5.22974 27.647 3.9296 24.931 3.44632C23.5215 3.19602 22.0009 3.2486 20.2817 3.60824C20.1856 3.62813 20.0894 3.62358 19.9994 3.59952C19.9098 3.62349 19.8138 3.62813 19.718 3.60824C17.9991 3.2486 16.4783 3.19602 15.0688 3.44632C12.3528 3.9296 9.97888 5.22974 8.38428 7.10875C6.66453 9.1348 5.95624 11.6923 6.39016 14.3115C6.62654 15.7393 7.32204 17.1697 8.23885 18.5363L10.9108 16.6778C9.36419 16.4561 8.17168 15.1232 8.17168 13.5165C8.17168 11.7545 9.60484 10.3211 11.3664 10.3211C13.4012 10.3211 14.9167 12.2055 14.4894 14.1878L18.7033 11.257C19.1237 10.9643 19.6281 11.0338 20 11.4307C20.3718 11.0337 20.8764 10.9643 21.2969 11.257L25.5107 14.1889C25.0846 12.2024 26.6002 10.3212 28.6338 10.3212C30.3952 10.3212 31.8285 11.7547 31.8285 13.5166C31.8285 15.1233 30.636 16.4562 29.0894 16.6778L31.761 18.5363ZM26.651 13.5165C26.651 14.6097 27.5403 15.4987 28.6337 15.4987C29.7268 15.4987 30.6163 14.6098 30.6163 13.5165C30.6163 12.4227 29.7268 11.5334 28.6337 11.5334C27.5402 11.5334 26.651 12.4227 26.651 13.5165ZM24.5197 18.403C24.9941 18.9194 25.5313 19.5045 25.5313 20.4807V25.2992C27.3644 23.7077 29.5801 21.4655 31.0548 19.5223L20.8 12.3875C20.5163 12.9483 20.5171 13.9715 20.9706 14.4739L24.5197 18.403ZM19.1998 12.3875L8.94496 19.5223C10.4199 21.4657 12.6352 23.7074 14.4685 25.2992V20.4807C14.4685 19.5045 15.006 18.9194 15.4801 18.403L19.0292 14.474C19.483 13.9713 19.4833 12.948 19.1998 12.3875ZM11.3662 15.4987C12.4595 15.4987 13.3489 14.6098 13.3489 13.5165C13.3489 12.4227 12.4595 11.5334 11.3662 11.5334C10.273 11.5334 9.38352 12.4228 9.38352 13.5165C9.38352 14.6098 10.273 15.4987 11.3662 15.4987ZM20 29.4652C20.5821 28.9125 21.537 28.2642 22.4627 27.6363C23.1337 27.1806 23.8271 26.7101 24.3166 26.3157C24.3174 26.3152 24.3184 26.3142 24.3192 26.3136V20.4806C24.3192 19.9127 23.9436 19.5759 23.4852 19.067L20.0709 15.2871C20.0462 15.2596 20.0231 15.231 19.9997 15.2028C19.9766 15.231 19.9535 15.2596 19.9286 15.2871L16.5144 19.067C16.0556 19.5764 15.6805 19.9132 15.6805 20.4806V26.3136C15.6815 26.3141 15.6823 26.3152 15.6831 26.3157C16.1726 26.7101 16.8662 27.1806 17.537 27.6363C18.4628 28.2642 19.4177 28.9125 20 29.4652ZM20 37.3004C20.2088 37.0248 20.4123 36.7919 20.7134 36.5305C22.2853 35.1655 23.4306 33.8873 24.1171 32.7296C24.8097 31.5628 24.9854 30.7628 24.9338 30.5431C24.8899 30.535 24.7883 30.5283 24.5969 30.5681C24.379 30.6125 23.7306 30.9845 23.2571 31.2553C22.0869 31.9265 21.3415 32.3332 20.7844 32.2545C20.4853 32.2121 20.2187 32.1018 19.9997 31.9388C19.7811 32.1018 19.5143 32.2122 19.2152 32.2545C18.6583 32.3337 17.9127 31.9265 16.7426 31.2557C16.269 30.9845 15.6206 30.6125 15.4029 30.5681C15.2114 30.5282 15.1098 30.535 15.0659 30.5431C15.0144 30.7628 15.19 31.5628 15.8827 32.7296C16.5692 33.8873 17.7144 35.1655 19.2864 36.5305C19.5875 36.792 19.7909 37.0249 20 37.3004ZM27.2887 0C24.6525 0 22.1383 0.820937 19.9998 2.3766C17.8618 0.821032 15.3473 0 12.7114 0C5.75349 0 0.0927734 5.80444 0.0927734 12.9402C0.0927734 16.831 2.23564 22.4735 5.82464 28.0332C9.46983 33.6783 13.8583 38.0063 17.564 39.6068C18.4285 39.9806 19.3644 40.1784 19.9998 39.7841C20.6357 40.1783 21.571 39.9808 22.4358 39.6068C26.1416 38.0063 30.5301 33.6782 34.1751 28.0332C37.7644 22.4735 39.9071 16.831 39.9071 12.9402C39.907 5.80444 34.2464 0 27.2887 0Z" fill="#4E4E4E"/>
</svg>
