<svg width="40" height="40" viewBox="0 0 40 40" fill="none" xmlns="http://www.w3.org/2000/svg">
<path fill-rule="evenodd" clip-rule="evenodd" d="M21.1515 5.43966C20.3945 4.96471 19.6268 4.48085 18.868 4.48085C18.1091 4.48085 17.3414 4.96293 16.5844 5.43966C15.9577 5.83246 15.3381 6.22345 14.6525 6.41094C13.949 6.60377 13.2027 6.57699 12.4582 6.55021C11.6083 6.51985 10.762 6.48772 10.1799 6.82874C9.59967 7.16798 9.21755 7.91964 8.83548 8.66952C8.5016 9.32656 8.16596 9.9836 7.66245 10.4871C7.15893 10.9906 6.50189 11.3245 5.84484 11.6602C5.09497 12.0422 4.34326 12.4243 4.00407 13.0046C3.66305 13.5866 3.6934 14.433 3.72553 15.2828C3.75232 16.0274 3.7791 16.7737 3.58627 17.4772C3.39701 18.1628 3.00779 18.7823 2.61498 19.409C2.14004 20.166 1.65618 20.9338 1.65618 21.6926C1.65618 22.4515 2.13825 23.2192 2.61498 23.9762C3.00778 24.6029 3.39878 25.2225 3.58627 25.9081C3.7791 26.6116 3.75231 27.3579 3.72553 28.1024C3.69518 28.9523 3.66304 29.7986 4.00407 30.3807C4.3433 30.9609 5.09497 31.343 5.84484 31.7251C6.50189 32.059 7.15893 32.3946 7.66245 32.8981C8.16596 33.4016 8.49981 34.0587 8.83548 34.7157C9.21757 35.4656 9.59967 36.2173 10.1799 36.5565C10.762 36.8975 11.6083 36.8672 12.4582 36.835C13.2027 36.8083 13.949 36.7815 14.6525 36.9743C15.3381 37.1636 15.9577 37.5528 16.5844 37.9456C17.3414 38.4205 18.1091 38.9044 18.868 38.9044C19.6268 38.9044 20.3945 38.4223 21.1515 37.9456C21.7782 37.5528 22.3978 37.1618 23.0834 36.9743C23.7869 36.7815 24.5332 36.8083 25.2777 36.835C26.1276 36.8654 26.9739 36.8975 27.556 36.5565C28.1362 36.2173 28.5184 35.4656 28.9004 34.7157C29.2343 34.0587 29.5699 33.4016 30.0735 32.8981C30.577 32.3946 31.234 32.0608 31.8911 31.7251C32.6409 31.343 33.3926 30.9609 33.7318 30.3807C34.0729 29.7986 34.0425 28.9523 34.0104 28.1024C33.9836 27.3579 33.955 26.6116 34.1496 25.9081C34.3389 25.2225 34.7281 24.6029 35.1209 23.9762C35.5959 23.2192 36.0797 22.4515 36.0797 21.6926C36.0797 20.9338 35.5976 20.1661 35.1209 19.409C34.7281 18.7823 34.3371 18.1628 34.1496 17.4772C33.9568 16.7737 33.9836 16.0274 34.0104 15.2828C34.0407 14.433 34.0729 13.5867 33.7318 13.0046C33.3926 12.4243 32.6409 12.0422 31.8911 11.6602C31.234 11.3263 30.577 10.9906 30.0735 10.4871C29.5699 9.9836 29.2361 9.32656 28.9004 8.66952C28.5183 7.91964 28.1362 7.16793 27.556 6.82874C26.9739 6.48772 26.1276 6.51807 25.2777 6.55021C24.5332 6.57699 23.7869 6.60555 23.0834 6.41094C22.3978 6.22168 21.7782 5.83247 21.1515 5.43966ZM18.868 3.38639C19.9374 3.38639 20.8409 3.95595 21.7336 4.5166C22.2924 4.86833 22.8459 5.21647 23.369 5.36113C23.91 5.50933 24.576 5.48611 25.2384 5.46112C26.2472 5.42362 27.2506 5.38791 28.1076 5.88962C28.9682 6.39492 29.4235 7.28585 29.8752 8.175C30.1698 8.75525 30.4644 9.33195 30.8465 9.71406C31.2285 10.0961 31.8071 10.3908 32.3855 10.6853C33.2747 11.1371 34.1674 11.5924 34.6709 12.4529C35.1726 13.3117 35.1369 14.3134 35.0994 15.3221C35.0744 15.9845 35.0512 16.6487 35.1994 17.1915C35.344 17.7146 35.6904 18.2681 36.0439 18.8269C36.6046 19.7179 37.1741 20.6231 37.1741 21.6926C37.1741 22.762 36.6046 23.6655 36.0439 24.5582C35.6922 25.1171 35.3441 25.6705 35.1994 26.1937C35.0512 26.7346 35.0744 27.4006 35.0994 28.063C35.1369 29.0718 35.1726 30.0752 34.6709 30.9322C34.1656 31.7928 33.2747 32.2481 32.3855 32.6998C31.8053 32.9944 31.2286 33.289 30.8465 33.6711C30.4644 34.0532 30.1698 34.6317 29.8752 35.2101C29.4235 36.0993 28.9682 36.992 28.1076 37.4955C27.2488 37.9972 26.2472 37.9615 25.2384 37.924C24.576 37.899 23.9118 37.8758 23.369 38.024C22.8459 38.1686 22.2924 38.515 21.7336 38.8685C20.8427 39.4292 19.9374 39.9987 18.868 39.9987C17.7985 39.9987 16.895 39.4292 16.0023 38.8685C15.4435 38.5168 14.89 38.1687 14.3669 38.024C13.8259 37.8758 13.1599 37.899 12.4975 37.924C11.4888 37.9615 10.4853 37.9972 9.62833 37.4955C8.76775 36.9902 8.31245 36.0993 7.86072 35.2101C7.56613 34.6299 7.27151 34.0532 6.88944 33.6711C6.50735 33.289 5.92885 32.9944 5.35038 32.6998C4.46123 32.2481 3.56852 31.7928 3.06501 30.9322C2.56327 30.0734 2.59902 29.0718 2.6365 28.063C2.66149 27.4006 2.68471 26.7364 2.53651 26.1937C2.39189 25.6705 2.04552 25.117 1.69198 24.5582C1.13133 23.6673 0.561768 22.762 0.561768 21.6926C0.561768 20.6231 1.13133 19.7197 1.69198 18.8269C2.04371 18.2681 2.39185 17.7146 2.53651 17.1915C2.68471 16.6505 2.6615 15.9845 2.6365 15.3221C2.599 14.3134 2.56329 13.31 3.06501 12.4529C3.5703 11.5924 4.46123 11.1371 5.35038 10.6853C5.93064 10.3907 6.50733 10.0961 6.88944 9.71406C7.27153 9.33197 7.56614 8.75347 7.86072 8.175C8.31244 7.28585 8.76775 6.39314 9.62833 5.88962C10.4871 5.38789 11.4888 5.42364 12.4975 5.46112C13.1599 5.48611 13.8241 5.50933 14.3669 5.36113C14.89 5.21651 15.4435 4.87014 16.0023 4.5166C16.8933 3.95595 17.7985 3.38639 18.868 3.38639ZM21.5532 31.4933C20.6979 31.7272 19.7981 31.8522 18.8679 31.8522C17.9395 31.8522 17.0378 31.7272 16.1825 31.4933V29.5186L18.8679 28.799L21.5532 29.5186V31.4933ZM22.2798 32.4199C22.2709 32.4235 22.262 32.4253 22.253 32.4288C21.1854 32.7645 20.048 32.9466 18.8679 32.9466C17.6895 32.9466 16.5521 32.7645 15.4845 32.4288C15.4755 32.4253 15.4666 32.4235 15.4577 32.4199C13.7222 31.8682 12.1689 30.9076 10.9119 29.6507C8.87653 27.6153 7.61601 24.8016 7.61601 21.6948C7.61601 18.5881 8.87653 15.7743 10.9119 13.739C12.9473 11.7036 15.761 10.4431 18.8678 10.4431C21.9745 10.4431 24.7883 11.7036 26.8236 13.739C28.859 15.7744 30.1195 18.5881 30.1195 21.6948C30.1195 24.8016 28.859 27.6153 26.8236 29.6507C25.5667 30.9076 24.0133 31.8682 22.2779 32.4199H22.2798ZM22.6476 29.7453C22.844 29.7524 23.0369 29.7381 23.2261 29.7006C23.6028 29.6257 23.9599 29.4632 24.2831 29.215C24.608 28.9668 24.858 28.6651 25.0276 28.3187C25.1972 27.9724 25.2865 27.5902 25.2865 27.185V23.4427C25.2865 22.6142 24.9491 21.8626 24.4027 21.318C23.8582 20.7734 23.1047 20.4342 22.278 20.4342H15.4612C14.6328 20.4342 13.8811 20.7716 13.3366 21.318C12.792 21.8626 12.4528 22.616 12.4528 23.4427V27.185C12.4528 27.5903 12.5403 27.9724 12.7117 28.3187C12.8813 28.6633 13.1312 28.9651 13.4562 29.215C13.7794 29.4632 14.1365 29.6257 14.5132 29.7006C14.7024 29.7381 14.8953 29.7524 15.0917 29.7453V31.1254C13.8061 30.6094 12.651 29.8399 11.6886 28.8775C9.8496 27.0385 8.71404 24.4996 8.71404 21.6946C8.71404 18.8896 9.85138 16.3509 11.6886 14.5117C13.5276 12.6745 16.0665 11.5371 18.8715 11.5371C21.6765 11.5371 24.2152 12.6745 26.0545 14.5117C27.8934 16.3507 29.029 18.8896 29.029 21.6946C29.029 24.4996 27.8917 27.0383 26.0545 28.8775C25.0921 29.8399 23.9369 30.6094 22.6514 31.1254V29.7453H22.6476ZM21.5532 24.0478V24.6317C21.1211 24.4835 20.5837 24.4763 19.9766 24.6388L16.1843 25.6548V24.0479C16.1843 23.7461 15.9397 23.4997 15.6362 23.4997C15.3345 23.4997 15.0881 23.7443 15.0881 24.0479V26.3671C15.0881 26.4136 15.0934 26.4618 15.1059 26.5082C15.1845 26.7992 15.4827 26.9724 15.7755 26.8956L20.2569 25.694C20.6622 25.5851 20.989 25.5851 21.2229 25.6726C21.3961 25.7369 21.5139 25.8619 21.5657 26.0315C21.5692 26.0458 21.5728 26.0601 21.5764 26.0743C21.621 26.2672 21.5764 26.4796 21.4496 26.6689C21.2996 26.8939 21.0336 27.0849 20.6569 27.1849C20.0159 27.3402 19.3589 27.5313 18.7214 27.7045L15.5219 28.5615C15.5023 28.565 15.4826 28.5704 15.4648 28.5758L15.3862 28.5972C15.1559 28.6597 14.9309 28.6668 14.7185 28.6257C14.5078 28.5829 14.3043 28.49 14.115 28.3454C13.9275 28.2008 13.7829 28.0294 13.6883 27.8348C13.5937 27.6437 13.5454 27.4241 13.5454 27.1831V23.4408C13.5454 22.9159 13.7615 22.4374 14.1079 22.0892C14.456 21.7428 14.9328 21.5268 15.4594 21.5268H22.2763C22.8012 21.5268 23.2797 21.7428 23.6278 22.0892C23.9742 22.4356 24.1903 22.9141 24.1903 23.4408V27.1831C24.1903 27.4223 24.142 27.6419 24.0474 27.8348C23.951 28.0276 23.8082 28.2008 23.6207 28.3454C23.4314 28.4901 23.2279 28.5847 23.0172 28.6257C22.8048 28.6686 22.578 28.6597 22.3495 28.5972L22.2709 28.5758C22.2531 28.5704 22.2334 28.565 22.2138 28.5615L20.9801 28.2312C21.6085 28.0544 22.0727 27.7009 22.3584 27.276C22.6512 26.8385 22.753 26.3297 22.6494 25.8494V24.0461C22.6494 23.7443 22.4048 23.498 22.1013 23.498C21.7996 23.498 21.5532 23.7426 21.5532 24.0461L21.5532 24.0478ZM20.2176 14.8223C20.5801 15.2276 20.8032 15.7918 20.8032 16.4202C20.8032 17.0487 20.5801 17.6129 20.2176 18.0182C19.8695 18.4074 19.3928 18.6467 18.8696 18.6467C18.3447 18.6467 17.868 18.4057 17.5216 18.0182C17.1592 17.6129 16.936 17.0487 16.936 16.4202C16.936 15.7918 17.1592 15.2275 17.5216 14.8223C17.8698 14.433 18.3465 14.1938 18.8696 14.1938C19.3945 14.1938 19.8713 14.4348 20.2176 14.8223ZM18.8696 13.0993C19.716 13.0993 20.4801 13.4796 21.0318 14.0956C21.5675 14.6955 21.8995 15.5168 21.8995 16.4202C21.8995 17.3237 21.5674 18.1467 21.0318 18.7449C20.4819 19.3609 19.716 19.7412 18.8696 19.7412C18.0233 19.7412 17.2592 19.3609 16.7074 18.7449C16.17 18.145 15.8397 17.3236 15.8397 16.4202C15.8397 15.5168 16.1718 14.6937 16.7074 14.0956C17.2574 13.4796 18.0233 13.0993 18.8696 13.0993ZM35.2027 3.6918C35.2849 3.86856 35.4509 3.98105 35.6313 4.00247V4.00426L37.6684 4.25958L36.1687 5.6665C36.0276 5.79862 35.9723 5.98966 36.0062 6.16645L36.3937 8.1858L34.5921 7.19308C34.4207 7.09845 34.219 7.10738 34.0601 7.19665L32.2639 8.18581L32.6513 6.16645C32.6888 5.96827 32.6156 5.77544 32.4728 5.65046L30.9891 4.2578L33.0263 4.00248C33.2369 3.97748 33.4048 3.83465 33.4726 3.64896L34.3279 1.82779L35.2027 3.69001L35.2027 3.6918ZM34.8224 0.315531L36.0615 2.95441L38.9575 3.31864C39.2575 3.35435 39.4699 3.62752 39.4342 3.92746C39.4164 4.07209 39.3432 4.19706 39.2396 4.28277L37.1363 6.25568L37.6845 9.12309C37.7416 9.41948 37.547 9.70513 37.2506 9.76227C37.1203 9.78726 36.9917 9.76405 36.8846 9.70513L34.3278 8.29821L31.771 9.70513C31.5068 9.84975 31.1747 9.75334 31.0283 9.48909C30.964 9.37304 30.9479 9.24448 30.9711 9.12307L31.5193 6.25566L29.391 4.25953C29.1714 4.05242 29.1607 3.70784 29.3678 3.48821C29.4589 3.3918 29.5767 3.33466 29.6999 3.32038V3.3186L32.5959 2.95436L33.835 0.315487C33.9617 0.0423122 34.2867 -0.0755263 34.5599 0.0530259C34.6813 0.108373 34.7707 0.204832 34.8224 0.315531Z" fill="#383838"/>
</svg>
